<?xml version="1.0" encoding="UTF-8" standalone="no"?>
<!-- Created with Inkscape (http://www.inkscape.org/) -->

<svg
   xmlns:dc="http://purl.org/dc/elements/1.1/"
   xmlns:cc="http://creativecommons.org/ns#"
   xmlns:rdf="http://www.w3.org/1999/02/22-rdf-syntax-ns#"
   xmlns:svg="http://www.w3.org/2000/svg"
   xmlns="http://www.w3.org/2000/svg"
   xmlns:sodipodi="http://sodipodi.sourceforge.net/DTD/sodipodi-0.dtd"
   xmlns:inkscape="http://www.inkscape.org/namespaces/inkscape"
   version="1.1"
   id="svg815"
   xml:space="preserve"
   width="960"
   height="720"
   viewBox="0 0 960 720"
   sodipodi:docname="Figure_S2.1.svg"
   inkscape:version="0.92.3 (2405546, 2018-03-11)"><metadata
     id="metadata821"><rdf:RDF><cc:Work
         rdf:about=""><dc:format>image/svg+xml</dc:format><dc:type
           rdf:resource="http://purl.org/dc/dcmitype/StillImage" /><dc:title></dc:title></cc:Work></rdf:RDF></metadata><defs
     id="defs819"><clipPath
       clipPathUnits="userSpaceOnUse"
       id="clipPath831"><path
         d="M 0,1.2207e-4 H 720 V 540.00012 H 0 Z"
         id="path829"
         inkscape:connector-curvature="0"
         style="clip-rule:evenodd" /></clipPath><clipPath
       clipPathUnits="userSpaceOnUse"
       id="clipPath843"><path
         d="M 1.0729e-5,0 H 720.00001 V 540 H 1.0729e-5 Z"
         id="path841"
         inkscape:connector-curvature="0"
         style="clip-rule:evenodd" /></clipPath><clipPath
       clipPathUnits="userSpaceOnUse"
       id="clipPath855"><path
         d="M 1.0729e-5,0 H 720.00001 V 540 H 1.0729e-5 Z"
         id="path853"
         inkscape:connector-curvature="0"
         style="clip-rule:evenodd" /></clipPath><clipPath
       clipPathUnits="userSpaceOnUse"
       id="clipPath875"><path
         d="M 1.0729e-5,0 H 720.00001 V 540 H 1.0729e-5 Z"
         id="path873"
         inkscape:connector-curvature="0"
         style="clip-rule:evenodd" /></clipPath><clipPath
       clipPathUnits="userSpaceOnUse"
       id="clipPath887"><path
         d="M 1.5348e-5,540 H 720 V -6.1035e-5 H 6.641e-6"
         id="path885"
         inkscape:connector-curvature="0"
         style="clip-rule:evenodd" /></clipPath><clipPath
       clipPathUnits="userSpaceOnUse"
       id="clipPath899"><path
         d="M -2.1761e-5,540 H 720 V 6.1035e-5 H -1.6047e-5"
         id="path897"
         inkscape:connector-curvature="0"
         style="clip-rule:evenodd" /></clipPath><clipPath
       clipPathUnits="userSpaceOnUse"
       id="clipPath911"><path
         d="M 1.0729e-5,0 H 720.00001 V 540 H 1.0729e-5 Z"
         id="path909"
         inkscape:connector-curvature="0"
         style="clip-rule:evenodd" /></clipPath><clipPath
       clipPathUnits="userSpaceOnUse"
       id="clipPath923"><path
         d="M 1.0729e-5,0 H 720.00001 V 540 H 1.0729e-5 Z"
         id="path921"
         inkscape:connector-curvature="0"
         style="clip-rule:evenodd" /></clipPath><clipPath
       clipPathUnits="userSpaceOnUse"
       id="clipPath935"><path
         d="M 1.0729e-5,0 H 720.00001 V 540 H 1.0729e-5 Z"
         id="path933"
         inkscape:connector-curvature="0"
         style="clip-rule:evenodd" /></clipPath><clipPath
       clipPathUnits="userSpaceOnUse"
       id="clipPath947"><path
         d="M 1.0729e-5,0 H 720.00001 V 540 H 1.0729e-5 Z"
         id="path945"
         inkscape:connector-curvature="0"
         style="clip-rule:evenodd" /></clipPath><clipPath
       clipPathUnits="userSpaceOnUse"
       id="clipPath959"><path
         d="M 1.0729e-5,0 H 720.00001 V 540 H 1.0729e-5 Z"
         id="path957"
         inkscape:connector-curvature="0"
         style="clip-rule:evenodd" /></clipPath><clipPath
       clipPathUnits="userSpaceOnUse"
       id="clipPath971"><path
         d="M 1.0729e-5,0 H 720.00001 V 540 H 1.0729e-5 Z"
         id="path969"
         inkscape:connector-curvature="0"
         style="clip-rule:evenodd" /></clipPath><clipPath
       clipPathUnits="userSpaceOnUse"
       id="clipPath995"><path
         d="M -1.2999e-5,540 H 720 V 1.2207e-4 H -1.2999e-5"
         id="path993"
         inkscape:connector-curvature="0"
         style="clip-rule:evenodd" /></clipPath><clipPath
       clipPathUnits="userSpaceOnUse"
       id="clipPath1005"><path
         d="M -1.2999e-5,540 H 720 V 1.2207e-4 H -1.2999e-5"
         id="path1003"
         inkscape:connector-curvature="0"
         style="clip-rule:evenodd" /></clipPath><clipPath
       clipPathUnits="userSpaceOnUse"
       id="clipPath1015"><path
         d="M 1.0729e-5,0 H 720.00001 V 540 H 1.0729e-5 Z"
         id="path1013"
         inkscape:connector-curvature="0"
         style="clip-rule:evenodd" /></clipPath><clipPath
       clipPathUnits="userSpaceOnUse"
       id="clipPath1031"><path
         d="M 1.0729e-5,0 H 720.00001 V 540 H 1.0729e-5 Z"
         id="path1029"
         inkscape:connector-curvature="0"
         style="clip-rule:evenodd" /></clipPath><clipPath
       clipPathUnits="userSpaceOnUse"
       id="clipPath1047"><path
         d="M 1.0729e-5,0 H 720.00001 V 540 H 1.0729e-5 Z"
         id="path1045"
         inkscape:connector-curvature="0"
         style="clip-rule:evenodd" /></clipPath><clipPath
       clipPathUnits="userSpaceOnUse"
       id="clipPath1059"><path
         d="M 1.0729e-5,0 H 720.00001 V 540 H 1.0729e-5 Z"
         id="path1057"
         inkscape:connector-curvature="0"
         style="clip-rule:evenodd" /></clipPath><clipPath
       clipPathUnits="userSpaceOnUse"
       id="clipPath1073"><path
         d="M 1.0729e-5,0 H 720.00001 V 540 H 1.0729e-5 Z"
         id="path1071"
         inkscape:connector-curvature="0"
         style="clip-rule:evenodd" /></clipPath><clipPath
       clipPathUnits="userSpaceOnUse"
       id="clipPath1085"><path
         d="M 1.0729e-5,0 H 720.00001 V 540 H 1.0729e-5 Z"
         id="path1083"
         inkscape:connector-curvature="0"
         style="clip-rule:evenodd" /></clipPath></defs><sodipodi:namedview
     pagecolor="#ffffff"
     bordercolor="#666666"
     borderopacity="1"
     objecttolerance="10"
     gridtolerance="10"
     guidetolerance="10"
     inkscape:pageopacity="0"
     inkscape:pageshadow="2"
     inkscape:window-width="1920"
     inkscape:window-height="986"
     id="namedview817"
     showgrid="false"
     inkscape:zoom="1.0180556"
     inkscape:cx="480"
     inkscape:cy="360"
     inkscape:window-x="-11"
     inkscape:window-y="-11"
     inkscape:window-maximized="1"
     inkscape:current-layer="g823" /><g
     id="g823"
     inkscape:groupmode="layer"
     inkscape:label="Figure_S2.1"
     transform="matrix(1.3333333,0,0,-1.3333333,0,720)"><path
       d="m 286.2,301.68 h 90.72 v 88.2 H 286.2 Z"
       style="fill:#daeef3;fill-opacity:1;fill-rule:evenodd;stroke:none"
       id="path835"
       inkscape:connector-curvature="0" /><g
       id="g837"><g
         id="g839"
         clip-path="url(#clipPath843)"><text
           transform="matrix(1,0,0,-1,302.02,376.56)"
           style="font-variant:normal;font-weight:bold;font-size:8.3039999px;font-family:Arial;-inkscape-font-specification:Arial-BoldMT;writing-mode:lr-tb;fill:#000000;fill-opacity:1;fill-rule:nonzero;stroke:none"
           id="text847"><tspan
             x="0 2.873184 5.3809919 7.8888001 10.761984 12.198576 17.596176 22.271328 25.144512 27.652321 34.51973 39.194881 42.068066 46.743217 48.902256 51.77544 57.164738 61.83989"
             y="0"
             sodipodi:role="line"
             id="tspan845">(ii) Estimate the </tspan></text>
</g></g><g
       id="g849"><g
         id="g851"
         clip-path="url(#clipPath855)"><text
           transform="matrix(1,0,0,-1,304.54,366.46)"
           style="font-variant:normal;font-weight:bold;font-size:8.27999973px;font-family:Arial;-inkscape-font-specification:Arial-BoldMT;writing-mode:lr-tb;fill:#000000;fill-opacity:1;fill-rule:nonzero;stroke:none"
           id="text859"><tspan
             x="0 3.25404 7.9488001 10.82196 15.51672 17.677799 22.736879 25.610041 27.406799 32.101559 37.160641 40.422958 45.117722 49.812481"
             y="0"
             sodipodi:role="line"
             id="tspan857">rate of spread</tspan></text>
</g></g><g
       id="g861"><path
         d="m 377.28,277.2 h 21.71"
         style="fill:none;stroke:#000000;stroke-width:2.88000011;stroke-linecap:butt;stroke-linejoin:round;stroke-miterlimit:10;stroke-dasharray:2.88, 2.88;stroke-dashoffset:0;stroke-opacity:1"
         id="path863"
         inkscape:connector-curvature="0" /></g><path
       d="m 286.2,402.48 h 90.72 v 12.6 H 286.2 Z"
       style="fill:#daeef3;fill-opacity:1;fill-rule:evenodd;stroke:none"
       id="path865"
       inkscape:connector-curvature="0" /><path
       d="m 286.2,402.48 h 90.72 v 12.6 H 286.2 Z"
       style="fill:none;stroke:#000000;stroke-width:2.16000009;stroke-linecap:butt;stroke-linejoin:round;stroke-miterlimit:10;stroke-dasharray:none;stroke-opacity:1"
       id="path867"
       inkscape:connector-curvature="0" /><g
       id="g869"><g
         id="g871"
         clip-path="url(#clipPath875)"><text
           transform="matrix(1,0,0,-1,290.88,405.7)"
           style="font-variant:normal;font-weight:bold;font-size:8.27999973px;font-family:Arial;-inkscape-font-specification:Arial-BoldMT;writing-mode:lr-tb;fill:#000000;fill-opacity:1;fill-rule:nonzero;stroke:none"
           id="text879"><tspan
             x="0 2.8731599 5.382 8.2551603 10.05192 15.45048 20.120399 26.959681 32.018761 34.51104 39.180962 41.6898 46.748878 51.402241 54.623161 59.317921 66.157204 70.827118 73.700279 78.370201"
             y="0"
             sodipodi:role="line"
             id="tspan877">(i) Sample parameter</tspan></text>
</g></g><g
       id="g881"><g
         id="g883"
         clip-path="url(#clipPath887)"><path
           d="m 286.04,311.25 c 7.49,5.36 13.32,11.99 17,19.36"
           style="fill:none;stroke:#820085;stroke-width:2.25;stroke-linecap:butt;stroke-linejoin:round;stroke-miterlimit:10;stroke-dasharray:none;stroke-opacity:1"
           id="path889"
           inkscape:connector-curvature="0" /></g></g><path
       d="m 284.96,297.67 89.82,0.68 -0.03,4.68 -89.83,-0.68 z m 87.52,-4.02 13.98,7.13 -14.09,6.91 z"
       style="fill:#000000;fill-opacity:1;fill-rule:nonzero;stroke:none"
       id="path891"
       inkscape:connector-curvature="0" /><g
       id="g893"><g
         id="g895"
         clip-path="url(#clipPath899)"><path
           d="m 358.73,361.45 c -25.5,0.35 -47.91,-12.22 -55.77,-31.29"
           style="fill:none;stroke:#820085;stroke-width:2.25;stroke-linecap:butt;stroke-linejoin:round;stroke-miterlimit:10;stroke-dasharray:none;stroke-opacity:1"
           id="path901"
           inkscape:connector-curvature="0" /></g></g><path
       d="m 284.18,299.51 -0.12,78.13 h 4.68 l 0.12,-78.12 z m -4.8,75.78 7,14.05 7.04,-14.03 z"
       style="fill:#000000;fill-opacity:1;fill-rule:nonzero;stroke:none"
       id="path903"
       inkscape:connector-curvature="0" /><g
       id="g905"><g
         id="g907"
         clip-path="url(#clipPath911)"><text
           transform="matrix(1,0,0,-1,345.48,288.62)"
           style="font-variant:normal;font-weight:bold;font-size:8.27999973px;font-family:Arial;-inkscape-font-specification:Arial-BoldMT;writing-mode:lr-tb;fill:#000000;fill-opacity:1;fill-rule:nonzero;stroke:none"
           id="text915"><tspan
             x="0 5.3902798 7.8991199 14.7384"
             y="0"
             sodipodi:role="line"
             id="tspan913">Time</tspan></text>
</g></g><g
       id="g917"><g
         id="g919"
         clip-path="url(#clipPath923)"><text
           transform="matrix(-4.4e-8,1,1,4.4e-8,249.91,299.26)"
           style="font-variant:normal;font-weight:bold;font-size:9px;font-family:Arial;-inkscape-font-specification:Arial-BoldMT;writing-mode:lr-tb;fill:#000000;fill-opacity:1;fill-rule:nonzero;stroke:none"
           id="text927"><tspan
             x="0 5.4000001 10.8 15.831"
             y="0"
             sodipodi:role="line"
             id="tspan925">The </tspan></text>
</g></g><g
       id="g929"><g
         id="g931"
         clip-path="url(#clipPath935)"><text
           transform="matrix(-4.4e-8,1,1,4.4e-8,249.91,317.62)"
           style="font-variant:normal;font-weight:bold;font-size:9px;font-family:Arial;-inkscape-font-specification:Arial-BoldMT;writing-mode:lr-tb;fill:#000000;fill-opacity:1;fill-rule:nonzero;stroke:none"
           id="text939"><tspan
             x="0 2.8800001 6.4710002 11.502 16.902 22.302 27.333 32.733002 37.764 42.444"
             y="0"
             sodipodi:role="line"
             id="tspan937">frequency </tspan></text>
</g></g><g
       id="g941"><g
         id="g943"
         clip-path="url(#clipPath947)"><text
           transform="matrix(-4.4e-8,1,1,4.4e-8,249.91,363.38)"
           style="font-variant:normal;font-weight:bold;font-size:9px;font-family:Arial;-inkscape-font-specification:Arial-BoldMT;writing-mode:lr-tb;fill:#000000;fill-opacity:1;fill-rule:nonzero;stroke:none"
           id="text951"><tspan
             x="0 5.4000001 8.2799997 10.782 13.68 19.08 24.111"
             y="0"
             sodipodi:role="line"
             id="tspan949">of the </tspan></text>
</g></g><g
       id="g953"><g
         id="g955"
         clip-path="url(#clipPath959)"><text
           transform="matrix(-4.4e-8,1,1,4.4e-8,260.71,301.78)"
           style="font-variant:normal;font-weight:bold;font-size:9px;font-family:Arial;-inkscape-font-specification:Arial-BoldMT;writing-mode:lr-tb;fill:#000000;fill-opacity:1;fill-rule:nonzero;stroke:none"
           id="text963"><tspan
             x="0 5.4000001 10.8 13.302 18.719999 21.6 27 32.400002 34.902 39.951 42.821999 50.382 55.782001 58.661999 63.693001 69.093002 71.973 75.564003 78.066002 83.484001"
             y="0"
             sodipodi:role="line"
             id="tspan961">quintuple mutant in </tspan></text>
</g></g><g
       id="g965"><g
         id="g967"
         clip-path="url(#clipPath971)"><text
           transform="matrix(-4.4e-8,1,1,4.4e-8,271.51,307.9)"
           style="font-variant:normal;font-weight:bold;font-size:9px;font-family:Arial;-inkscape-font-specification:Arial-BoldMT;writing-mode:lr-tb;fill:#000000;fill-opacity:1;fill-rule:nonzero;stroke:none"
           id="text975"><tspan
             x="0 2.5020001 7.9200001 10.8 15.831 20.862 23.742001 28.773001 34.173 37.043999 42.444 47.844002 55.403999 60.435001 65.834999 70.865997"
             y="0"
             sodipodi:role="line"
             id="tspan973">infected humans </tspan></text>
</g></g><path
       d="m 358.56,361.44 18.33,-0.01"
       style="fill:none;stroke:#820085;stroke-width:2.16000009;stroke-linecap:butt;stroke-linejoin:round;stroke-miterlimit:10;stroke-dasharray:none;stroke-opacity:1"
       id="path977"
       inkscape:connector-curvature="0" /><path
       d="m 330.17,402.49 -0.02,-6.51 2.88,-0.01 0.02,6.5 z m -2.9,-5.06 4.29,-8.65 4.35,8.62 z"
       style="fill:#000000;fill-opacity:1;fill-rule:nonzero;stroke:none"
       id="path979"
       inkscape:connector-curvature="0" /><path
       d="m 333,301.68 v -9.26 h -2.88 v 9.26 z m 2.88,-7.82 -4.32,-8.64 -4.32,8.64 z"
       style="fill:#000000;fill-opacity:1;fill-rule:nonzero;stroke:none"
       id="path981"
       inkscape:connector-curvature="0" /><path
       d="m 393.96,410.04 -2.88,-0.05 0.06,-2.88 2.88,0.05 z m -5.76,-0.11 -1.95,-0.04 0.06,-2.88 1.95,0.04 z m -0.56,2.87 -8.56,-4.48 8.72,-4.16 z"
       style="fill:#000000;fill-opacity:1;fill-rule:nonzero;stroke:none"
       id="path983"
       inkscape:connector-curvature="0" /><g
       id="g985"><path
         d="M 399.24,408.6 V 277.13"
         style="fill:none;stroke:#000000;stroke-width:2.88000011;stroke-linecap:butt;stroke-linejoin:round;stroke-miterlimit:10;stroke-dasharray:2.88, 2.88;stroke-dashoffset:0;stroke-opacity:1"
         id="path987"
         inkscape:connector-curvature="0" /></g><g
       id="g989"><g
         id="g991"
         clip-path="url(#clipPath995)"><path
           d="m 390.24,300.6 h 18.72 v 89.28 h -18.72 z"
           style="fill:#daeef3;fill-opacity:1;fill-rule:evenodd;stroke:none"
           id="path997"
           inkscape:connector-curvature="0" /></g></g><g
       id="g999"><g
         id="g1001"
         clip-path="url(#clipPath1005)"><path
           d="m 390.24,300.6 h 18.72 v 89.28 h -18.72 z"
           style="fill:none;stroke:#000000;stroke-width:2.16000009;stroke-linecap:butt;stroke-linejoin:round;stroke-miterlimit:10;stroke-dasharray:none;stroke-opacity:1"
           id="path1007"
           inkscape:connector-curvature="0" /></g></g><g
       id="g1009"><g
         id="g1011"
         clip-path="url(#clipPath1015)"><text
           transform="matrix(-4.4e-8,-1,-1,4.4e-8,396.77,382.34)"
           style="font-variant:normal;font-weight:bold;font-size:8.27999973px;font-family:Arial;-inkscape-font-specification:Arial-BoldMT;writing-mode:lr-tb;fill:#000000;fill-opacity:1;fill-rule:nonzero;stroke:none"
           id="text1019"><tspan
             x="0 6.11064 11.16972 15.82308 20.88216 23.73876 26.247601 30.917521 35.58744 37.02816 41.698078 46.368 53.232121 58.291199 60.783482 63.29232 68.682602"
             y="0"
             sodipodi:role="line"
             id="tspan1017">Adaptive sampling</tspan></text>
</g></g><path
       d="m 286.2,269.28 h 91.08 v 16.2 H 286.2 Z"
       style="fill:#daeef3;fill-opacity:1;fill-rule:evenodd;stroke:none"
       id="path1021"
       inkscape:connector-curvature="0" /><path
       d="m 286.2,269.28 h 91.08 v 16.2 H 286.2 Z"
       style="fill:none;stroke:#000000;stroke-width:2.16000009;stroke-linecap:butt;stroke-linejoin:round;stroke-miterlimit:10;stroke-dasharray:none;stroke-opacity:1"
       id="path1023"
       inkscape:connector-curvature="0" /><g
       id="g1025"><g
         id="g1027"
         clip-path="url(#clipPath1031)"><text
           transform="matrix(1,0,0,-1,293.69,274.13)"
           style="font-variant:normal;font-weight:bold;font-size:8.27999973px;font-family:Arial;-inkscape-font-specification:Arial-BoldMT;writing-mode:lr-tb;fill:#000000;fill-opacity:1;fill-rule:nonzero;stroke:none"
           id="text1035"><tspan
             x="0 2.8731599 5.382 7.8908401 10.39968 13.27284 14.71356 20.11212 26.951401 32.341679 34.850521 39.520439 42.3936 47.452679 50.673599 52.47036 55.343521 61.454159 67.929123 73.327682"
             y="0"
             sodipodi:role="line"
             id="tspan1033">(iii) Emulator (HGP)</tspan></text>
</g></g><path
       d="m 286.2,232.56 h 91.08 v 22.32 H 286.2 Z"
       style="fill:#daeef3;fill-opacity:1;fill-rule:evenodd;stroke:none"
       id="path1037"
       inkscape:connector-curvature="0" /><path
       d="m 286.2,232.56 h 91.08 v 22.32 H 286.2 Z"
       style="fill:none;stroke:#000000;stroke-width:2.16000009;stroke-linecap:butt;stroke-linejoin:round;stroke-miterlimit:10;stroke-dasharray:none;stroke-opacity:1"
       id="path1039"
       inkscape:connector-curvature="0" /><g
       id="g1041"><g
         id="g1043"
         clip-path="url(#clipPath1047)"><text
           transform="matrix(1,0,0,-1,311.33,245.54)"
           style="font-variant:normal;font-weight:bold;font-size:8.27999973px;font-family:Arial;-inkscape-font-specification:Arial-BoldMT;writing-mode:lr-tb;fill:#000000;fill-opacity:1;fill-rule:nonzero;stroke:none"
           id="text1051"><tspan
             x="0 2.8731599 5.382 10.05192 12.92508 14.72184 21.1968 23.705641 28.764721 33.782398 38.45232 40.961159"
             y="0"
             sodipodi:role="line"
             id="tspan1049">(iv) Global </tspan></text>
</g></g><g
       id="g1053"><g
         id="g1055"
         clip-path="url(#clipPath1059)"><text
           transform="matrix(1,0,0,-1,294.05,235.46)"
           style="font-variant:normal;font-weight:bold;font-size:8.27999973px;font-family:Arial;-inkscape-font-specification:Arial-BoldMT;writing-mode:lr-tb;fill:#000000;fill-opacity:1;fill-rule:nonzero;stroke:none"
           id="text1063"><tspan
             x="0 4.66992 9.3398399 14.73012 19.40004 21.90888 24.78204 27.29088 31.613041 34.12188 36.639 40.59684 42.3936 47.063519 52.4538 57.123718 59.632561 63.590401 68.260323 70.769157"
             y="0"
             sodipodi:role="line"
             id="tspan1061">sensitivity analysis</tspan></text>
</g></g><path
       d="m 333,269.28 v -7.01 h -2.88 v 7.01 z m 2.88,-5.57 -4.32,-8.64 -4.32,8.64 z"
       style="fill:#000000;fill-opacity:1;fill-rule:nonzero;stroke:none"
       id="path1065"
       inkscape:connector-curvature="0" /><g
       id="g1067"><g
         id="g1069"
         clip-path="url(#clipPath1073)"><text
           transform="matrix(1,0,0,-1,277.1,358.15)"
           style="font-variant:normal;font-weight:bold;font-size:8.27999973px;font-family:Arial;-inkscape-font-specification:Arial-BoldMT;writing-mode:lr-tb;fill:#000000;fill-opacity:1;fill-rule:nonzero;stroke:none"
           id="text1077"><tspan
             x="0"
             y="0"
             id="tspan1075">1</tspan></text>
</g></g><g
       id="g1079"><g
         id="g1081"
         clip-path="url(#clipPath1085)"><text
           transform="matrix(1,0,0,-1,277.1,295.46)"
           style="font-variant:normal;font-weight:bold;font-size:8.27999973px;font-family:Arial;-inkscape-font-specification:Arial-BoldMT;writing-mode:lr-tb;fill:#000000;fill-opacity:1;fill-rule:nonzero;stroke:none"
           id="text1089"><tspan
             x="0"
             y="0"
             id="tspan1087">0</tspan></text>
</g></g><g
       id="g1091"><path
         d="m 282.96,360.72 h 94.07"
         style="fill:none;stroke:#000000;stroke-width:0.72000003;stroke-linecap:butt;stroke-linejoin:round;stroke-miterlimit:10;stroke-dasharray:2.16, 0.72;stroke-dashoffset:0;stroke-opacity:1"
         id="path1093"
         inkscape:connector-curvature="0" /></g></g></svg>